<?xml version="1.0" standalone="no"?>
<!DOCTYPE svg PUBLIC "-//W3C//DTD SVG 20010904//EN"
 "http://www.w3.org/TR/2001/REC-SVG-20010904/DTD/svg10.dtd">
<svg version="1.0" xmlns="http://www.w3.org/2000/svg"
 width="800.000000pt" height="800.000000pt" viewBox="0 0 800.000000 800.000000"
 preserveAspectRatio="xMidYMid meet">
<metadata>
Created by potrace 1.14, written by Peter Selinger 2001-2017
</metadata>
<g transform="translate(0.000000,800.000000) scale(0.100000,-0.100000)"
fill="#000000" stroke="none">
<path d="M1563 5938 c2 -7 12 -13 22 -13 10 0 20 6 23 13 2 7 -6 12 -23 12
-17 0 -25 -5 -22 -12z"/>
<path d="M1413 5928 c-30 -8 -50 -24 -41 -33 5 -6 92 15 101 24 13 13 -25 18
-60 9z"/>
<path d="M1735 5919 c-10 -15 3 -25 16 -12 7 7 7 13 1 17 -6 3 -14 1 -17 -5z"/>
<path d="M1700 5906 c0 -15 18 -31 26 -23 7 7 -7 37 -17 37 -5 0 -9 -6 -9 -14z"/>
<path d="M1795 5910 c-3 -5 -1 -10 4 -10 6 0 11 5 11 10 0 6 -2 10 -4 10 -3 0
-8 -4 -11 -10z"/>
<path d="M6190 5855 c0 -22 4 -25 36 -25 40 0 77 16 69 31 -4 5 -10 7 -15 4
-5 -3 -11 -1 -15 5 -3 5 -22 10 -41 10 -30 0 -34 -3 -34 -25z"/>
<path d="M6120 5835 c-7 -9 -11 -18 -8 -20 3 -3 11 1 18 10 7 9 11 18 8 20 -3
3 -11 -1 -18 -10z"/>
<path d="M2007 5833 c-48 -3 -67 -8 -64 -16 5 -16 93 -21 128 -6 29 11 40 31
17 27 -7 -1 -44 -3 -81 -5z"/>
<path d="M6690 5810 c0 -5 5 -10 11 -10 5 0 7 5 4 10 -3 6 -8 10 -11 10 -2 0
-4 -4 -4 -10z"/>
<path d="M6552 5783 c-6 -2 -10 -9 -6 -14 8 -14 40 -11 54 6 10 13 9 15 -11
14 -13 0 -30 -3 -37 -6z"/>
<path d="M2266 5427 c-15 -11 -17 -21 -12 -58 4 -24 7 -85 7 -135 -1 -102 9
-126 57 -130 34 -2 111 -41 160 -82 33 -27 78 -129 89 -200 5 -33 6 -34 47
-28 22 4 82 9 131 12 74 4 92 9 104 25 7 10 24 19 38 19 32 0 63 17 63 34 0 8
-7 27 -15 42 -23 45 -19 56 18 54 47 -3 49 -2 82 26 22 19 26 27 16 33 -10 7
-11 13 -1 30 11 21 10 22 -23 16 -29 -6 -37 -3 -46 14 -7 12 -22 21 -35 21
-13 0 -35 14 -52 33 -16 17 -45 44 -64 59 l-35 27 23 19 c24 19 21 32 -9 32
-10 0 -31 11 -47 25 -16 13 -31 22 -34 20 -2 -3 -52 13 -110 35 -97 36 -244
70 -307 70 -15 0 -35 -6 -45 -13z m206 -198 c-17 -3 -43 -14 -56 -23 -33 -21
-86 -22 -86 -1 0 18 39 35 80 35 16 0 31 4 35 10 3 6 16 5 32 -3 l26 -12 -31
-6z m128 -223 c0 -3 -4 -8 -10 -11 -5 -3 -10 -1 -10 4 0 6 5 11 10 11 6 0 10
-2 10 -4z"/>
<path d="M2084 5387 c-79 -35 -151 -85 -200 -141 -39 -44 -45 -55 -40 -85 4
-28 2 -32 -13 -28 -31 8 -46 -31 -47 -123 -2 -135 -3 -148 -14 -128 -6 9 -11
39 -12 66 -2 50 -18 64 -18 17 0 -14 -5 -45 -12 -69 -10 -38 -9 -48 7 -72 l18
-29 10 30 11 30 12 -49 c7 -28 10 -54 6 -60 -3 -6 -6 -27 -5 -46 1 -27 0 -29
-4 -7 -2 15 -9 27 -16 27 -8 0 -8 3 0 11 11 11 6 49 -6 49 -3 0 -13 -4 -21 -9
-12 -8 -12 -23 -3 -96 6 -55 16 -93 27 -103 15 -15 16 -14 16 16 0 20 4 31 10
27 6 -3 10 -25 10 -48 0 -68 24 -141 66 -204 46 -68 258 -283 279 -283 20 0
30 42 29 122 0 40 4 66 10 65 17 -3 19 34 2 46 -12 9 -16 30 -17 80 l-1 67
-39 0 c-33 0 -39 3 -39 21 0 29 18 59 35 59 8 0 15 -4 15 -9 0 -12 58 -42 64
-32 3 4 -14 60 -36 126 -55 161 -56 239 -7 346 31 67 34 82 34 165 0 52 -5 97
-11 105 -7 8 -8 22 -3 34 13 33 10 84 -7 110 -20 30 -25 30 -90 2z m20 -93 c3
-9 2 -22 -2 -30 -7 -13 -10 -13 -21 0 -14 16 -9 46 8 46 5 0 12 -7 15 -16z
m-64 -4 c0 -5 -4 -10 -10 -10 -5 0 -10 5 -10 10 0 6 5 10 10 10 6 0 10 -4 10
-10z m-57 -99 c-3 -10 0 -21 5 -25 9 -5 5 -56 -4 -56 -15 0 -74 31 -74 39 0
11 57 61 70 61 4 0 6 -8 3 -19z m-98 -621 c-3 -5 -10 -10 -16 -10 -5 0 -9 5
-9 10 0 6 7 10 16 10 8 0 12 -4 9 -10z"/>
<path d="M5457 5403 c-4 -3 -7 -19 -7 -35 0 -34 -28 -38 -55 -8 -25 28 -36 9
-28 -49 6 -40 4 -44 -12 -37 -10 4 -25 1 -34 -8 -9 -8 -25 -16 -36 -18 -11 -2
-19 -10 -18 -18 2 -15 -44 -53 -115 -96 -41 -26 -53 -43 -46 -66 6 -21 -23
-68 -42 -68 -9 0 -14 -11 -14 -31 0 -36 -51 -94 -75 -85 -22 8 -45 -4 -45 -24
0 -18 53 -70 71 -70 5 0 9 -4 9 -10 0 -5 -6 -10 -13 -10 -7 0 -22 -6 -33 -14
-19 -14 -19 -15 4 -38 28 -30 28 -41 1 -33 -17 6 -20 3 -17 -17 2 -17 9 -22
26 -21 17 2 22 -2 22 -22 0 -24 -4 -29 -51 -65 -24 -18 -26 -25 -22 -72 2 -29
3 -62 1 -73 -2 -16 -2 -812 1 -1020 1 -80 58 -265 82 -265 15 0 23 52 12 80
-5 14 -7 34 -3 45 8 24 20 7 21 -32 0 -15 3 -52 6 -81 4 -50 6 -52 31 -50 23
3 27 -1 26 -22 -1 -14 -4 -32 -8 -42 -6 -12 9 -30 60 -72 78 -65 212 -118 245
-98 19 12 35 0 24 -18 -9 -14 23 -12 70 5 34 12 41 12 56 -1 20 -18 90 -10
135 17 22 13 34 15 41 8 33 -33 233 119 304 230 33 51 35 61 15 61 -9 0 -4 10
14 28 30 31 53 97 48 140 -2 22 -8 27 -28 25 -43 -4 -52 -4 -196 3 l-140 7
-50 -53 c-55 -58 -86 -74 -163 -85 -44 -6 -59 -3 -106 20 -63 30 -100 71 -114
123 -6 20 -10 111 -10 201 0 144 2 166 17 177 10 8 12 13 5 14 -21 0 -15 28
10 45 22 16 22 16 2 31 -11 8 -19 24 -17 34 2 11 -1 20 -6 20 -13 0 -15 142
-2 175 7 20 6 32 -6 50 -9 15 -13 32 -9 45 4 12 7 44 7 71 -1 27 3 51 7 53 10
7 1 205 -10 227 -13 26 1 29 39 8 20 -10 42 -19 49 -19 16 0 17 16 1 26 -7 5
-5 11 8 21 18 13 18 15 -10 36 -61 47 -76 66 -76 97 0 17 5 40 11 51 8 16 7
25 -5 38 -24 26 -20 49 15 83 22 22 29 38 26 55 -2 12 0 23 4 23 5 0 8 10 6
23 -2 17 8 27 45 45 60 30 116 38 162 22 64 -21 134 -94 144 -149 8 -50 8
-176 -2 -205 -5 -18 -4 -59 3 -113 9 -63 9 -88 1 -98 -7 -8 -8 -20 -4 -27 4
-6 9 -190 10 -406 2 -217 7 -398 11 -402 4 -4 28 -12 53 -19 53 -15 69 -27 81
-58 5 -14 17 -23 29 -23 13 0 20 -7 20 -19 0 -11 5 -23 11 -27 8 -5 7 -9 -1
-14 -18 -11 -4 -40 19 -40 27 0 33 35 10 56 -32 29 -8 34 55 13 32 -11 68 -19
80 -17 35 5 24 31 -19 44 l-40 11 30 7 c56 14 55 7 55 307 0 154 4 287 9 297
5 9 12 25 15 35 5 14 13 16 45 11 45 -7 48 3 16 52 -11 16 -19 31 -18 34 13
70 12 90 -3 90 -9 0 -18 -9 -21 -20 -7 -26 -28 -20 -29 8 -1 12 -7 28 -14 37
-11 13 -9 15 11 15 13 0 35 9 49 20 l25 20 -32 0 c-18 0 -33 -4 -33 -10 0 -5
-6 -10 -12 -10 -10 0 -13 36 -13 145 0 131 -2 145 -17 145 -24 0 -23 17 1 25
11 3 24 20 30 37 9 26 8 35 -5 49 -13 14 -15 29 -11 64 6 43 5 45 -18 45 -28
0 -32 8 -11 24 13 9 13 17 2 49 -34 94 -157 252 -216 277 -16 7 -30 18 -30 25
0 6 -32 24 -70 39 -67 27 -100 29 -100 6 0 -11 -43 -14 -53 -4 -3 3 -1 15 6
25 16 26 -5 49 -32 32 -11 -7 -23 -8 -32 -2 -16 10 -93 12 -102 2z m100 -29
c-3 -3 -12 -4 -19 -1 -8 3 -5 6 6 6 11 1 17 -2 13 -5z m193 -44 c8 -5 11 -12
8 -16 -10 -9 -38 3 -38 16 0 12 10 13 30 0z m-130 -130 c0 -5 -4 -10 -10 -10
-5 0 -10 5 -10 10 0 6 5 10 10 10 6 0 10 -4 10 -10z m-530 -246 c0 -8 -4 -14
-10 -14 -5 0 -10 9 -10 21 0 11 5 17 10 14 6 -3 10 -13 10 -21z m18 -85 c-2
-6 -8 -10 -13 -10 -5 0 -11 4 -13 10 -2 6 4 11 13 11 9 0 15 -5 13 -11z m-38
-33 c0 -3 -4 -8 -10 -11 -5 -3 -10 -1 -10 4 0 6 5 11 10 11 6 0 10 -2 10 -4z
m710 -41 c0 -8 -4 -15 -10 -15 -5 0 -10 7 -10 15 0 8 5 15 10 15 6 0 10 -7 10
-15z m-712 -38 c2 -10 -3 -17 -12 -17 -10 0 -16 9 -16 21 0 24 23 21 28 -4z
m82 -17 c0 -5 -5 -10 -11 -10 -5 0 -7 5 -4 10 3 6 8 10 11 10 2 0 4 -4 4 -10z
m-92 -81 c-4 -37 -2 -52 8 -56 21 -8 17 -30 -7 -47 -31 -21 -57 -3 -51 35 2
16 8 29 12 29 4 0 11 20 14 45 10 63 30 58 24 -6z m79 -31 c-3 -8 -6 -5 -6 6
-1 11 2 17 5 13 3 -3 4 -12 1 -19z m-11 -105 c-11 -11 -19 6 -11 24 8 17 8 17
12 0 3 -10 2 -21 -1 -24z m-81 -22 c3 -5 1 -12 -5 -16 -5 -3 -10 1 -10 9 0 18
6 21 15 7z m-15 -187 c0 -8 -5 -12 -10 -9 -6 4 -8 11 -5 16 9 14 15 11 15 -7z
m-9 -97 c-13 -13 -14 5 -3 43 l7 25 3 -29 c2 -16 -1 -33 -7 -39z m1139 11 c0
-16 -3 -19 -11 -11 -6 6 -8 16 -5 22 11 17 16 13 16 -11z m-1132 -78 c-1 -22
-5 -40 -10 -40 -4 0 -8 18 -8 40 0 22 4 40 10 40 5 0 9 -18 8 -40z m-4 -212
c-2 -73 -5 -194 -6 -268 l-2 -135 -6 120 c-6 143 0 426 10 420 4 -2 5 -64 4
-137z m71 61 c-4 -5 -13 -9 -22 -9 -13 0 -13 3 -3 15 13 15 35 11 25 -6z m64
-115 c-14 -18 -24 -11 -15 11 3 9 11 13 16 10 8 -5 7 -11 -1 -21z m-128 -429
c1 -16 1 -59 -1 -95 l-3 -65 -7 50 c-11 71 -12 174 -1 155 5 -8 10 -28 12 -45z
m763 -124 c3 -5 -1 -12 -10 -15 -22 -9 -24 -8 -24 9 0 16 25 21 34 6z m-524
-251 c0 -5 -7 -10 -16 -10 -8 0 -12 5 -9 10 3 6 10 10 16 10 5 0 9 -4 9 -10z
m460 -130 c0 -31 -17 -39 -38 -18 -8 8 -12 9 -12 1 0 -13 -28 -43 -40 -43 -4
0 -10 11 -13 25 -6 32 32 65 74 65 26 0 29 -4 29 -30z"/>
<path d="M3947 5360 c-202 -6 -201 -5 -210 -88 -8 -74 -2 -103 23 -122 l24
-18 -29 6 c-24 4 -27 2 -22 -12 4 -10 7 -24 7 -32 0 -7 16 -20 36 -29 38 -16
42 -38 7 -43 -23 -3 -35 -41 -34 -104 0 -42 -24 -72 -40 -47 -5 8 -9 26 -9 42
0 15 -4 27 -10 27 -5 0 -10 -24 -10 -52 0 -29 -4 -59 -9 -67 -6 -9 -5 -21 2
-33 17 -27 -3 -52 -44 -56 -19 -1 -47 -8 -62 -14 l-28 -11 22 -23 c28 -30 35
-30 43 1 5 19 13 25 32 25 20 0 25 -4 20 -16 -3 -9 -9 -33 -12 -54 -6 -34 -3
-39 24 -56 26 -15 29 -21 20 -37 -7 -14 -13 -16 -21 -8 -20 20 -29 12 -25 -20
3 -20 0 -33 -9 -36 -7 -3 -13 -10 -13 -17 0 -6 -18 -12 -40 -13 -33 -2 -45 3
-76 33 l-37 35 -48 -16 c-33 -11 -46 -21 -43 -30 4 -9 -12 -25 -43 -44 -50
-32 -77 -38 -88 -21 -4 6 -11 8 -16 5 -5 -4 -9 10 -9 29 0 37 -13 48 -24 20
-3 -8 -10 -13 -15 -10 -5 4 -16 3 -25 0 -12 -5 -14 -10 -6 -19 8 -10 4 -18
-19 -31 -17 -10 -31 -22 -31 -26 0 -4 -22 -10 -50 -14 -48 -6 -55 -12 -50 -43
1 -7 -4 -35 -10 -62 -9 -35 -17 -49 -29 -49 -24 0 -41 -20 -41 -47 0 -19 5
-23 30 -23 28 0 29 2 20 26 -9 22 -8 25 7 22 12 -2 27 11 46 40 24 37 32 43
54 39 19 -3 27 0 30 13 3 10 14 18 26 19 12 0 39 1 60 2 21 0 50 7 65 15 15 8
39 14 55 14 15 0 27 5 27 11 0 9 -22 10 -75 6 l-75 -5 0 34 c0 36 9 41 43 22
12 -6 55 -12 95 -12 63 -1 72 1 72 17 0 11 5 15 11 11 15 -9 179 -11 179 -2 0
4 11 8 25 8 18 0 25 -5 25 -19 0 -15 -10 -20 -45 -25 -25 -4 -50 -4 -56 0 -25
15 -79 10 -85 -8 -4 -14 -9 -15 -24 -6 -14 9 -24 8 -45 -6 l-27 -18 28 -19
c33 -21 56 -23 116 -9 24 5 60 12 81 15 21 4 47 15 58 26 19 19 19 19 30 -8 5
-15 9 -41 7 -57 -3 -31 -14 -36 -50 -21 -15 6 -18 2 -18 -20 0 -22 -3 -25 -20
-20 -26 8 -25 4 5 -41 19 -29 26 -33 31 -20 9 23 18 20 34 -9 18 -33 30 -32
30 4 0 20 6 32 19 36 33 10 45 32 28 50 -18 17 -11 55 9 55 9 0 14 -12 14 -35
0 -42 16 -45 58 -10 37 31 39 31 45 -2 4 -20 -2 -36 -20 -57 -17 -20 -21 -32
-14 -39 6 -6 11 -19 11 -28 0 -9 7 -22 15 -29 31 -26 16 -35 -61 -37 -52 -1
-81 -6 -93 -17 -10 -9 -26 -13 -39 -9 -13 3 -22 1 -22 -6 0 -14 -37 -15 -42
-1 -5 16 -48 -1 -45 -19 1 -9 -2 -35 -7 -59 -7 -36 -5 -45 10 -57 16 -11 16
-15 5 -29 -10 -12 -17 -13 -27 -5 -18 15 -27 -54 -23 -173 1 -14 -5 -40 -13
-56 -8 -16 -13 -43 -10 -61 8 -58 -8 -140 -34 -168 -23 -25 -29 -45 -37 -128
-3 -22 -17 -98 -32 -170 -14 -71 -27 -159 -28 -195 l-2 -65 115 1 c281 1 290
4 290 81 0 24 6 52 12 63 9 14 10 22 1 31 -8 8 -7 20 4 48 17 41 53 228 53
277 0 55 77 96 163 87 34 -3 57 -1 61 5 5 8 14 8 32 0 20 -9 30 -9 46 1 14 8
24 9 30 3 7 -7 18 -7 34 0 18 8 29 7 46 -4 19 -13 22 -23 22 -95 1 -73 3 -83
25 -100 21 -17 22 -22 11 -42 -10 -19 -9 -28 0 -47 9 -16 10 -27 3 -36 -12
-15 1 -152 20 -219 l13 -44 174 -2 c109 -1 179 2 187 8 7 6 12 32 12 57 -1 66
-37 354 -55 430 -8 35 -12 67 -9 72 3 5 1 20 -5 34 -5 15 -14 52 -19 84 -6 31
-15 83 -20 115 -6 32 -11 95 -12 140 -2 61 -9 95 -26 134 -18 38 -22 61 -18
87 4 19 2 43 -4 55 -10 18 -9 22 14 31 33 13 32 26 -4 38 -25 9 -31 18 -41 67
-7 32 -10 76 -8 99 3 22 -1 58 -8 78 -10 28 -10 38 -1 41 9 3 9 8 0 18 -7 7
-13 34 -13 60 0 29 -6 51 -15 59 -33 27 -72 186 -90 365 -3 33 -8 76 -10 95
-2 19 -11 60 -19 90 -9 30 -16 65 -16 78 0 18 -4 23 -16 18 -9 -3 -20 -6 -25
-6 -6 0 -9 -8 -7 -17 2 -12 -3 -18 -17 -18 -17 0 -20 7 -21 41 l0 41 43 -3
c53 -3 69 19 33 46 -14 10 -20 22 -15 29 4 7 -1 21 -11 32 -19 21 5 20 -347 9z
m107 -766 c8 -79 29 -144 50 -156 12 -7 13 -14 6 -34 -13 -33 -11 -96 4 -159
10 -45 14 -50 36 -47 56 7 63 7 66 -3 2 -5 -17 -18 -42 -29 l-45 -19 6 -41 c9
-52 22 -76 40 -76 18 0 19 -23 4 -51 -8 -16 -6 -30 10 -65 12 -24 21 -54 21
-67 0 -12 9 -40 20 -62 25 -50 25 -57 -2 -53 -14 2 -29 15 -38 36 -18 38 -53
41 -58 4 -3 -18 1 -23 15 -20 27 4 30 -39 4 -63 -26 -25 -37 -24 -44 3 -5 18
-8 19 -22 8 -15 -12 -15 -14 -1 -22 9 -5 16 -16 16 -25 0 -13 -5 -12 -25 7
-31 29 -29 52 5 60 18 4 26 13 28 34 2 16 -2 33 -10 37 -7 5 -50 9 -96 9 -115
0 -116 5 -68 183 27 99 34 141 27 158 -5 14 -5 51 0 88 5 36 7 72 4 82 -3 10
1 34 10 54 24 59 20 75 -17 75 -66 1 -90 50 -32 64 22 6 32 3 45 -13 16 -19
17 -18 23 37 17 143 49 178 60 66z m-134 -64 c0 -5 -4 -10 -10 -10 -5 0 -10 5
-10 10 0 6 5 10 10 10 6 0 10 -4 10 -10z m280 -9 c0 -6 -4 -13 -10 -16 -5 -3
-10 1 -10 9 0 9 5 16 10 16 6 0 10 -4 10 -9z m-320 -20 c0 -12 -20 -25 -27
-18 -7 7 6 27 18 27 5 0 9 -4 9 -9z m300 -15 c0 -11 -19 -15 -25 -6 -3 5 1 10
9 10 9 0 16 -2 16 -4z m-480 -126 c0 -5 -2 -10 -4 -10 -3 0 -8 5 -11 10 -3 6
-1 10 4 10 6 0 11 -4 11 -10z m-540 -25 c0 -17 -2 -18 -24 -9 -23 9 -20 24 4
24 11 0 20 -7 20 -15z m701 -15 c5 0 9 -4 9 -9 0 -5 -20 -11 -45 -13 -25 -2
-45 0 -45 5 0 11 42 27 58 21 8 -2 18 -4 23 -4z m477 -208 c2 -8 -12 -12 -47
-12 -53 0 -67 15 -29 29 27 10 70 0 76 -17z m-97 -58 c12 -14 11 -16 -5 -13
-11 2 -21 10 -24 17 -5 17 13 15 29 -4z m129 6 c0 -5 -4 -10 -10 -10 -5 0 -10
5 -10 10 0 6 5 10 10 10 6 0 10 -4 10 -10z m-664 -92 c-3 -13 -6 -31 -6 -40 0
-13 -8 -18 -26 -18 -21 0 -24 3 -15 14 6 7 8 21 5 31 -7 18 10 35 35 35 9 0
11 -7 7 -22z m-56 8 c0 -3 -4 -8 -10 -11 -5 -3 -10 -1 -10 4 0 6 5 11 10 11 6
0 10 -2 10 -4z m-30 -55 c0 -4 -5 -23 -12 -42 -12 -34 -12 -34 -19 -9 -13 45
-10 60 11 60 11 0 20 -4 20 -9z m730 -18 c0 -5 -4 -15 -10 -23 -11 -18 -25 -7
-17 15 6 15 27 21 27 8z m17 -35 c-3 -8 -6 -5 -6 6 -1 11 2 17 5 13 3 -3 4
-12 1 -19z m28 -47 c7 -12 -29 -33 -39 -24 -3 3 -6 12 -6 20 0 15 36 18 45 4z
m-65 -42 c0 -6 7 -8 16 -5 10 4 14 1 12 -6 -5 -15 -33 -22 -55 -14 -12 5 -13
9 -3 21 15 18 30 20 30 4z m-510 -99 c0 -6 12 -15 27 -21 25 -9 26 -11 9 -27
-16 -16 -18 -16 -30 1 -7 9 -24 17 -36 17 -22 0 -23 1 -5 20 20 22 35 26 35
10z m455 -8 c0 -18 -20 -15 -23 4 -3 10 1 15 10 12 7 -3 13 -10 13 -16z m-175
-102 c0 -5 -4 -10 -10 -10 -5 0 -10 5 -10 10 0 6 5 10 10 10 6 0 10 -4 10 -10z
m286 -17 c21 -29 17 -53 -9 -53 -20 0 -23 5 -23 35 0 38 11 45 32 18z m-303
-50 c-8 -51 -10 -51 -15 -4 -2 28 0 41 9 41 8 0 10 -12 6 -37z m397 22 c0 -8
-6 -15 -12 -15 -7 0 -23 -3 -35 -6 -17 -5 -23 -2 -23 9 0 15 17 23 53 26 9 0
17 -6 17 -14z m58 -120 c-8 -9 -48 8 -48 20 0 8 -10 15 -22 17 -13 2 -24 11
-26 22 -3 16 0 18 22 12 19 -5 28 -2 33 10 4 11 11 3 26 -30 11 -26 18 -48 15
-51z m-20 -77 c-2 -6 -10 -14 -16 -16 -7 -2 -10 2 -6 12 7 18 28 22 22 4z
m-120 -51 c2 -10 -3 -17 -11 -17 -16 0 -30 24 -19 34 10 10 27 1 30 -17z m92
8 c0 -8 -9 -15 -20 -15 -20 0 -26 11 -13 23 12 13 33 7 33 -8z m-880 -29 c0
-20 -26 -40 -35 -26 -10 16 2 40 20 40 8 0 15 -6 15 -14z m98 -67 c-2 -6 -8
-10 -13 -10 -5 0 -11 4 -13 10 -2 6 4 11 13 11 9 0 15 -5 13 -11z m647 -39
c-3 -5 -10 -10 -16 -10 -5 0 -9 5 -9 10 0 6 7 10 16 10 8 0 12 -4 9 -10z
m-750 -44 c119 -36 119 -36 112 -42 -6 -7 -227 64 -227 73 0 3 6 3 13 0 6 -2
53 -16 102 -31z"/>
<path d="M2955 5180 c-3 -5 1 -10 9 -10 9 0 16 5 16 10 0 6 -4 10 -9 10 -6 0
-13 -4 -16 -10z"/>
<path d="M3259 5087 c15 -19 41 -23 41 -7 0 6 -4 10 -9 10 -5 0 -18 3 -28 7
-16 6 -16 5 -4 -10z"/>
<path d="M3400 5065 c16 -17 27 -22 34 -15 5 5 20 10 33 10 13 0 23 4 23 9 0
9 -48 21 -88 21 l-25 0 23 -25z"/>
<path d="M3095 5070 c-3 -5 -3 -11 2 -12 4 0 13 -2 18 -3 6 -2 14 -3 19 -4 5
0 3 -8 -4 -16 -9 -11 -8 -20 10 -45 18 -26 49 -50 63 -50 8 0 17 97 11 115 -5
13 -9 14 -16 3 -7 -10 -11 -10 -22 5 -14 18 -71 24 -81 7z"/>
<path d="M3318 5073 c7 -3 16 -2 19 1 4 3 -2 6 -13 5 -11 0 -14 -3 -6 -6z"/>
<path d="M3556 5072 c-3 -6 -1 -14 5 -17 15 -10 25 3 12 16 -7 7 -13 7 -17 1z"/>
<path d="M3070 5025 c0 -9 6 -12 15 -9 8 4 12 10 9 15 -8 14 -24 10 -24 -6z"/>
<path d="M3490 4694 c-14 -7 -33 -14 -42 -14 -9 0 -19 -4 -22 -9 -3 -5 17 -9
44 -9 46 0 50 2 50 24 0 13 -1 24 -2 23 -2 -1 -14 -7 -28 -15z"/>
<path d="M3615 4670 c-3 -5 1 -10 9 -10 9 0 16 5 16 10 0 6 -4 10 -9 10 -6 0
-13 -4 -16 -10z"/>
<path d="M3532 4498 c18 -26 48 -36 48 -16 0 20 -21 38 -43 38 -18 0 -18 -2
-5 -22z"/>
<path d="M2215 4460 c-13 -14 -16 -28 -11 -55 8 -42 21 -44 57 -9 l28 27 -22
28 c-25 34 -28 35 -52 9z"/>
<path d="M2295 4330 c-3 -5 -1 -10 4 -10 6 0 11 5 11 10 0 6 -2 10 -4 10 -3 0
-8 -4 -11 -10z"/>
<path d="M2410 4309 c0 -14 60 -74 80 -81 12 -4 13 -8 3 -20 -7 -8 -10 -18 -7
-21 3 -3 -12 -23 -35 -45 l-41 -39 4 -102 c4 -96 13 -133 23 -103 7 19 23 14
23 -8 0 -13 -5 -18 -15 -14 -20 8 -20 -20 0 -36 9 -7 13 -21 9 -35 -4 -16 6
-39 35 -80 58 -83 81 -151 81 -242 0 -41 -5 -92 -11 -113 -9 -30 -8 -50 9
-111 11 -40 19 -75 17 -77 -2 -2 -15 19 -29 47 -15 28 -28 51 -31 51 -2 0 -24
-13 -48 -30 -24 -16 -66 -34 -93 -41 -27 -6 -54 -13 -61 -15 -31 -8 -43 -158
-18 -228 8 -22 12 -43 9 -48 -3 -5 -3 -22 1 -38 6 -26 9 -28 32 -19 18 7 30 6
37 -1 18 -18 64 -11 80 12 9 12 16 17 16 11 0 -18 99 -10 140 12 87 45 140 88
140 112 0 16 5 23 13 20 39 -15 128 134 168 280 18 66 21 96 17 193 -5 117
-26 198 -48 185 -13 -8 -60 2 -60 13 0 4 10 12 23 17 34 16 26 61 -28 151 -72
119 -105 160 -207 261 -91 90 -210 193 -222 193 -3 0 -6 -5 -6 -11z m295 -340
c-10 -15 -25 -10 -19 6 4 8 10 12 15 9 5 -3 7 -10 4 -15z m-155 -129 c9 -17 7
-20 -16 -26 -29 -7 -49 7 -41 30 9 22 44 20 57 -4z m127 -15 c10 -27 -6 -30
-29 -7 l-22 22 22 0 c12 0 25 -7 29 -15z m183 -44 c0 -6 -4 -13 -10 -16 -5 -3
-10 1 -10 9 0 9 5 16 10 16 6 0 10 -4 10 -9z m45 -221 c3 -5 -1 -10 -9 -10 -9
0 -16 5 -16 10 0 6 4 10 9 10 6 0 13 -4 16 -10z m-181 -9 c3 -4 -6 -18 -19
-31 -22 -20 -25 -21 -31 -6 -11 29 34 63 50 37z m146 -161 c0 -5 -4 -10 -9
-10 -6 0 -13 5 -16 10 -3 6 1 10 9 10 9 0 16 -4 16 -10z m-75 -10 c3 -5 1 -10
-4 -10 -6 0 -11 5 -11 10 0 6 2 10 4 10 3 0 8 -4 11 -10z m-385 -260 c0 -5 -4
-10 -10 -10 -5 0 -10 5 -10 10 0 6 5 10 10 10 6 0 10 -4 10 -10z m40 -179 c0
-27 -15 -49 -26 -39 -7 8 8 68 17 68 5 0 9 -13 9 -29z"/>
<path d="M5660 4195 c7 -9 15 -13 17 -11 7 7 -7 26 -19 26 -6 0 -6 -6 2 -15z"/>
<path d="M6255 4179 c-4 -11 -5 -22 -3 -23 72 -53 96 -56 75 -8 -22 51 -61 67
-72 31z"/>
<path d="M3567 4164 c-15 -15 -7 -45 11 -42 9 2 17 12 17 22 0 20 -16 31 -28
20z"/>
<path d="M2213 4148 c-10 -17 -5 -47 13 -72 19 -28 18 -36 -6 -36 -30 0 -25
-11 29 -64 l50 -49 14 36 c24 55 -2 134 -57 179 -25 21 -32 22 -43 6z"/>
<path d="M6384 4120 c1 -20 7 -32 19 -36 21 -7 39 6 20 13 -7 3 -13 16 -13 29
0 14 -6 24 -14 24 -8 0 -13 -11 -12 -30z"/>
<path d="M6456 4115 c13 -21 24 -25 62 -25 31 0 49 -5 58 -17 11 -16 13 -16
19 10 10 38 -10 60 -30 33 -16 -21 -45 -15 -45 9 0 11 -11 15 -40 15 l-40 0
16 -25z"/>
<path d="M3596 4091 c-4 -7 -5 -15 -2 -18 9 -9 19 4 14 18 -4 11 -6 11 -12 0z"/>
<path d="M1980 3589 c-19 -5 -68 -11 -109 -14 -44 -4 -79 -12 -88 -21 -8 -7
-23 -14 -33 -14 -11 0 -24 -9 -30 -19 -13 -25 -13 -108 0 -116 6 -4 8 -10 5
-15 -9 -14 49 -174 81 -220 31 -47 47 -53 52 -20 4 26 27 26 46 -2 20 -28 20
-42 1 -34 -11 4 -15 -2 -15 -28 0 -24 10 -45 39 -77 45 -52 138 -101 150 -80
7 10 13 10 29 2 29 -16 32 -15 46 22 13 30 20 99 18 177 0 19 -1 57 -2 84 -1
35 -12 73 -38 125 -27 58 -37 90 -38 138 -2 34 -10 75 -19 92 -17 33 -31 36
-95 20z m-43 -61 c-3 -8 -6 -5 -6 6 -1 11 2 17 5 13 3 -3 4 -12 1 -19z m-77
-128 c0 -5 -4 -10 -10 -10 -5 0 -10 5 -10 10 0 6 5 10 10 10 6 0 10 -4 10 -10z
m121 -67 c-9 -16 -10 -14 -11 12 0 21 3 26 11 18 8 -8 8 -16 0 -30z"/>
<path d="M3953 2500 c-50 -22 -83 -70 -83 -121 0 -44 35 -92 108 -150 29 -22
60 -55 68 -71 30 -58 -7 -118 -81 -132 -62 -12 -110 28 -129 107 -12 52 -28
34 -40 -48 -4 -22 -9 -52 -12 -67 -4 -21 -2 -28 10 -28 9 0 16 8 16 18 0 30
10 32 47 6 42 -28 127 -33 173 -9 69 36 109 140 77 201 -9 17 -50 61 -91 98
-66 59 -76 72 -76 101 0 70 106 104 149 49 12 -15 21 -40 21 -55 0 -19 5 -29
14 -29 17 0 49 123 33 129 -5 2 -13 -2 -17 -9 -5 -8 -16 -6 -41 9 -42 26 -91
26 -146 1z"/>
<path d="M4872 2307 c-189 -224 -237 -273 -277 -283 -14 -3 -25 -13 -25 -20 0
-12 17 -14 87 -12 55 2 88 7 90 15 2 6 -6 13 -19 15 -39 5 -31 32 33 101 l61
67 70 0 71 0 -7 -37 c-14 -90 -26 -114 -62 -129 -19 -8 -34 -19 -34 -24 0 -15
202 -8 207 6 2 6 -10 14 -27 17 -24 5 -30 12 -30 33 0 22 80 394 96 447 4 13
-1 17 -25 17 -27 0 -49 -22 -209 -213z m143 76 c-8 -27 -21 -74 -30 -105 l-16
-58 -54 0 c-30 0 -55 3 -55 6 0 5 162 204 166 204 1 0 -4 -21 -11 -47z"/>
<path d="M6306 2498 c-12 -20 -46 -270 -46 -343 0 -34 18 -32 25 3 3 15 27 91
52 169 40 122 45 145 35 167 -14 32 -47 34 -66 4z"/>
<path d="M1827 2504 c-11 -12 3 -24 28 -24 12 0 25 -7 29 -15 7 -18 -79 -366
-100 -408 -9 -17 -26 -30 -44 -33 -16 -4 -31 -13 -34 -20 -5 -12 26 -14 196
-12 l202 3 23 60 c35 91 36 95 19 95 -8 0 -23 -16 -32 -35 -23 -48 -55 -72
-119 -86 -77 -17 -119 -4 -123 38 -4 35 70 329 94 375 9 18 26 31 44 34 16 4
31 12 34 20 4 11 -15 14 -103 14 -59 0 -111 -3 -114 -6z"/>
<path d="M2300 2496 c0 -9 12 -16 28 -18 20 -2 28 -9 30 -28 1 -14 -20 -108
-48 -210 -51 -189 -67 -220 -111 -220 -10 0 -19 -7 -19 -15 0 -12 18 -15 104
-15 83 0 105 3 110 15 3 10 -1 15 -12 15 -25 0 -42 20 -42 48 0 31 76 315 97
365 12 27 24 39 46 45 17 4 32 13 35 20 3 9 -25 12 -107 12 -90 0 -111 -3
-111 -14z"/>
<path d="M2555 2500 c-6 -10 0 -14 48 -24 54 -12 55 -39 7 -218 -48 -185 -60
-209 -106 -232 -59 -28 -41 -37 63 -34 53 2 98 8 100 13 1 6 -11 18 -27 27
-19 11 -30 25 -30 39 0 25 70 300 79 311 4 4 44 -80 91 -188 46 -107 88 -198
93 -201 18 -11 29 18 83 223 30 115 62 219 70 232 8 13 26 27 40 32 49 19 24
30 -66 30 -66 0 -90 -3 -90 -13 0 -7 10 -17 23 -22 38 -17 33 -77 -30 -294
l-15 -54 -82 189 -82 189 -81 3 c-49 2 -84 -1 -88 -8z"/>
<path d="M3150 2495 c0 -9 9 -15 25 -15 48 0 47 -11 -32 -300 -35 -128 -50
-157 -86 -162 -11 -2 -22 -9 -25 -15 -3 -10 23 -13 106 -13 79 0 112 4 115 13
2 7 -10 16 -27 22 -17 6 -32 18 -34 29 -6 28 38 184 53 190 15 5 150 -176 150
-202 0 -10 -9 -18 -22 -20 -13 -2 -23 -10 -23 -18 0 -12 18 -14 102 -12 70 2
103 7 106 16 2 6 -3 12 -10 12 -19 0 -59 44 -153 168 -46 60 -75 106 -69 111
28 26 233 166 256 175 15 6 30 16 32 23 4 10 -17 13 -94 13 -82 0 -100 -3
-100 -15 0 -8 9 -15 20 -15 30 0 24 -22 -17 -61 -55 -52 -173 -133 -173 -118
0 17 38 141 48 157 5 7 22 16 37 20 16 5 30 13 33 20 3 9 -26 12 -107 12 -92
0 -111 -3 -111 -15z"/>
<path d="M4253 2440 c-35 -78 -24 -95 21 -35 54 71 177 102 184 47 4 -29 -86
-368 -106 -399 -8 -13 -29 -25 -48 -29 -20 -4 -34 -12 -34 -20 0 -12 21 -14
117 -12 74 2 118 7 120 14 2 6 -10 14 -26 17 -16 4 -34 14 -39 24 -13 25 89
401 114 420 27 19 87 16 111 -6 11 -11 24 -36 27 -55 7 -35 23 -48 30 -23 3 6
7 38 9 70 l6 57 -228 0 -227 0 -31 -70z"/>
<path d="M5260 2496 c0 -10 9 -16 25 -16 32 0 44 -24 34 -69 -25 -114 -90
-336 -104 -357 -8 -13 -26 -26 -40 -30 -14 -3 -25 -12 -25 -20 0 -21 215 -20
224 1 4 10 -4 17 -26 23 -51 13 -54 29 -27 128 24 87 25 89 54 89 29 0 32 -4
80 -128 l50 -128 64 3 c41 2 66 8 69 16 2 7 -5 12 -15 12 -40 0 -69 42 -122
177 l-20 52 42 19 c106 48 134 157 54 214 -29 21 -45 23 -174 26 -126 3 -143
2 -143 -12z m257 -31 c49 -35 34 -128 -26 -159 -41 -22 -131 -32 -131 -15 0
22 42 163 52 177 14 17 79 15 105 -3z"/>
<path d="M5730 2444 c-35 -76 -34 -74 -17 -74 8 0 20 11 27 25 34 64 164 111
188 69 11 -19 7 -36 -47 -238 -44 -165 -59 -194 -101 -202 -16 -4 -31 -12 -34
-20 -4 -11 16 -14 114 -14 95 0 120 3 120 14 0 7 -14 16 -30 20 -17 3 -33 13
-37 22 -8 22 88 383 110 411 13 17 29 23 56 23 51 0 80 -23 87 -71 7 -39 34
-57 34 -21 0 9 3 41 6 70 l7 52 -227 0 -227 0 -29 -66z"/>
<path d="M6220 2056 c-6 -8 -10 -25 -8 -38 2 -19 9 -23 38 -23 29 0 36 4 38
23 4 28 -14 52 -38 52 -10 0 -23 -7 -30 -14z"/>
</g>
</svg>
